<?plantuml 1.2026.1beta2?><svg xmlns="http://www.w3.org/2000/svg" xmlns:xlink="http://www.w3.org/1999/xlink" contentStyleType="text/css" data-diagram-type="ACTIVITY" height="1587.5px" preserveAspectRatio="none" style="width:1127px;height:1587px;background:#FFFFFF;" version="1.1" viewBox="0 0 1127 1587" width="1127.0833px" zoomAndPan="magnify"><title>TeleVotApp - Flujo de autenticaci&#243;n e identificaci&#243;n del elector</title><defs/><g><g class="title" data-source-line="1"><text fill="#000000" font-family="sans-serif" font-size="29.1667" font-weight="bold" lengthAdjust="spacing" textLength="1037.7523" x="41.6667" y="68.7398">TeleVotApp - Flujo de autenticaci&#243;n e identificaci&#243;n del elector</text></g><ellipse cx="604.7356" cy="119.3685" fill="#222222" rx="20.8333" ry="20.8333" style="stroke:#222222;stroke-width:2.0833;"/><rect fill="#F1F1F1" height="75.6185" rx="26.0417" ry="26.0417" style="stroke:#181818;stroke-width:1.0417;" width="475.706" x="366.8826" y="181.8685"/><text fill="#000000" font-family="sans-serif" font-size="29.1667" lengthAdjust="spacing" textLength="434.0393" x="387.7159" y="229.775">Elector accede a la aplicaci&#243;n</text><polygon fill="#F1F1F1" points="346.5721,299.1536,862.899,299.1536,887.899,324.1536,862.899,349.1536,346.5721,349.1536,321.5721,324.1536,346.5721,299.1536" style="stroke:#181818;stroke-width:1.0417;"/><text fill="#000000" font-family="sans-serif" font-size="29.1667" lengthAdjust="spacing" textLength="516.3269" x="346.5721" y="334.2509">&#191;Votaci&#243;n activa seg&#250;n calendario?</text><text fill="#000000" font-family="sans-serif" font-size="29.1667" lengthAdjust="spacing" textLength="26.6174" x="294.9547" y="317.275">S&#237;</text><text fill="#000000" font-family="sans-serif" font-size="29.1667" lengthAdjust="spacing" textLength="39.6627" x="887.899" y="317.275">No</text><rect fill="#F1F1F1" height="75.6185" rx="26.0417" ry="26.0417" style="stroke:#181818;stroke-width:1.0417;" width="508.6466" x="46.4155" y="369.987"/><text fill="#000000" font-family="sans-serif" font-size="29.1667" lengthAdjust="spacing" textLength="466.98" x="67.2488" y="417.8935">Iniciar proceso de autenticaci&#243;n</text><rect fill="#F1F1F1" height="75.6185" rx="26.0417" ry="26.0417" style="stroke:#181818;stroke-width:1.0417;" width="299.5809" x="758.9419" y="369.987"/><text fill="#000000" font-family="sans-serif" font-size="29.1667" lengthAdjust="spacing" textLength="257.9142" x="779.7752" y="417.8935">Acceso denegado</text><ellipse cx="908.7324" cy="510.1888" fill="none" rx="22.9167" ry="22.9167" style="stroke:#222222;stroke-width:2.0833;"/><ellipse cx="908.7324" cy="510.1888" fill="#222222" rx="12.5" ry="12.5" style="stroke:#222222;stroke-width:2.0833;"/><polygon fill="#F1F1F1" points="440.6446,574.7721,768.8265,574.7721,793.8265,599.7721,768.8265,624.7721,440.6446,624.7721,415.6446,599.7721,440.6446,574.7721" style="stroke:#181818;stroke-width:1.0417;"/><text fill="#000000" font-family="sans-serif" font-size="29.1667" lengthAdjust="spacing" textLength="328.182" x="440.6446" y="609.8694">&#191;Autenticaci&#243;n v&#225;lida?</text><text fill="#000000" font-family="sans-serif" font-size="29.1667" lengthAdjust="spacing" textLength="26.6174" x="389.0272" y="592.8935">S&#237;</text><text fill="#000000" font-family="sans-serif" font-size="29.1667" lengthAdjust="spacing" textLength="39.6627" x="793.8265" y="592.8935">No</text><rect fill="#F1F1F1" height="75.6185" rx="26.0417" ry="26.0417" style="stroke:#181818;stroke-width:1.0417;" width="306.2744" x="241.674" y="645.6055"/><text fill="#000000" font-family="sans-serif" font-size="29.1667" lengthAdjust="spacing" textLength="264.6077" x="262.5074" y="693.512">Identificar usuario</text><rect fill="#F1F1F1" height="75.6185" rx="26.0417" ry="26.0417" style="stroke:#181818;stroke-width:1.0417;" width="367.0573" x="631.1312" y="645.6055"/><text fill="#000000" font-family="sans-serif" font-size="29.1667" lengthAdjust="spacing" textLength="325.3906" x="651.9646" y="693.512">Error de autenticaci&#243;n</text><ellipse cx="814.6599" cy="785.8073" fill="none" rx="22.9167" ry="22.9167" style="stroke:#222222;stroke-width:2.0833;"/><ellipse cx="814.6599" cy="785.8073" fill="#222222" rx="12.5" ry="12.5" style="stroke:#222222;stroke-width:2.0833;"/><polygon fill="#F1F1F1" points="385.3589,850.3906,824.1122,850.3906,849.1122,875.3906,824.1122,900.3906,385.3589,900.3906,360.3589,875.3906,385.3589,850.3906" style="stroke:#181818;stroke-width:1.0417;"/><text fill="#000000" font-family="sans-serif" font-size="29.1667" lengthAdjust="spacing" textLength="438.7533" x="385.3589" y="885.4879">&#191;Pertenece a censo asociado?</text><text fill="#000000" font-family="sans-serif" font-size="29.1667" lengthAdjust="spacing" textLength="26.6174" x="333.7415" y="868.512">S&#237;</text><text fill="#000000" font-family="sans-serif" font-size="29.1667" lengthAdjust="spacing" textLength="39.6627" x="849.1122" y="868.512">No</text><rect fill="#F1F1F1" height="75.6185" rx="26.0417" ry="26.0417" style="stroke:#181818;stroke-width:1.0417;" width="545.2047" x="66.9233" y="921.224"/><text fill="#000000" font-family="sans-serif" font-size="29.1667" lengthAdjust="spacing" textLength="503.538" x="87.7566" y="969.1305">Verificar inscripci&#243;n en la votaci&#243;n</text><rect fill="#F1F1F1" height="75.6185" rx="26.0417" ry="26.0417" style="stroke:#181818;stroke-width:1.0417;" width="299.5809" x="720.1551" y="921.224"/><text fill="#000000" font-family="sans-serif" font-size="29.1667" lengthAdjust="spacing" textLength="257.9142" x="740.9884" y="969.1305">Acceso denegado</text><ellipse cx="869.9455" cy="1061.4258" fill="none" rx="22.9167" ry="22.9167" style="stroke:#222222;stroke-width:2.0833;"/><ellipse cx="869.9455" cy="1061.4258" fill="#222222" rx="12.5" ry="12.5" style="stroke:#222222;stroke-width:2.0833;"/><polygon fill="#F1F1F1" points="493.5733,1126.0091,715.8979,1126.0091,740.8979,1151.0091,715.8979,1176.0091,493.5733,1176.0091,468.5733,1151.0091,493.5733,1126.0091" style="stroke:#181818;stroke-width:1.0417;"/><text fill="#000000" font-family="sans-serif" font-size="29.1667" lengthAdjust="spacing" textLength="222.3246" x="493.5733" y="1161.1064">&#191;Ya ha votado?</text><text fill="#000000" font-family="sans-serif" font-size="29.1667" lengthAdjust="spacing" textLength="26.6174" x="441.9558" y="1144.1305">S&#237;</text><text fill="#000000" font-family="sans-serif" font-size="29.1667" lengthAdjust="spacing" textLength="39.6627" x="740.8979" y="1144.1305">No</text><rect fill="#F1F1F1" height="75.6185" rx="26.0417" ry="26.0417" style="stroke:#181818;stroke-width:1.0417;" width="422.9126" x="150.1767" y="1196.8424"/><text fill="#000000" font-family="sans-serif" font-size="29.1667" lengthAdjust="spacing" textLength="381.2459" x="171.0101" y="1244.7489">Voto duplicado bloqueado</text><ellipse cx="361.633" cy="1337.0443" fill="none" rx="22.9167" ry="22.9167" style="stroke:#222222;stroke-width:2.0833;"/><ellipse cx="361.633" cy="1337.0443" fill="#222222" rx="12.5" ry="12.5" style="stroke:#222222;stroke-width:2.0833;"/><rect fill="#F1F1F1" height="75.6185" rx="26.0417" ry="26.0417" style="stroke:#181818;stroke-width:1.0417;" width="466.1641" x="614.756" y="1196.8424"/><text fill="#000000" font-family="sans-serif" font-size="29.1667" lengthAdjust="spacing" textLength="424.4975" x="635.5893" y="1244.7489">Habilitar interfaz de votaci&#243;n</text><rect fill="#F1F1F1" height="75.6185" rx="26.0417" ry="26.0417" style="stroke:#181818;stroke-width:1.0417;" width="469.1976" x="370.1368" y="1401.6276"/><text fill="#000000" font-family="sans-serif" font-size="29.1667" lengthAdjust="spacing" textLength="427.5309" x="390.9701" y="1449.5341">Elector autorizado para votar</text><ellipse cx="604.7356" cy="1541.8294" fill="none" rx="22.9167" ry="22.9167" style="stroke:#222222;stroke-width:2.0833;"/><ellipse cx="604.7356" cy="1541.8294" fill="#222222" rx="12.5" ry="12.5" style="stroke:#222222;stroke-width:2.0833;"/><line style="stroke:#181818;stroke-width:2.0833;" x1="604.7356" x2="604.7356" y1="140.2018" y2="181.8685"/><polygon fill="#181818" points="596.4022,161.0352,604.7356,181.8685,613.0689,161.0352,604.7356,169.3685" style="stroke:#181818;stroke-width:2.0833;"/><line style="stroke:#181818;stroke-width:2.0833;" x1="908.7324" x2="908.7324" y1="445.6055" y2="487.2721"/><polygon fill="#181818" points="900.399,466.4388,908.7324,487.2721,917.0657,466.4388,908.7324,474.7721" style="stroke:#181818;stroke-width:2.0833;"/><line style="stroke:#181818;stroke-width:2.0833;" x1="321.5721" x2="300.7388" y1="324.1536" y2="324.1536"/><line style="stroke:#181818;stroke-width:2.0833;" x1="300.7388" x2="300.7388" y1="324.1536" y2="369.987"/><polygon fill="#181818" points="292.4054,349.1536,300.7388,369.987,309.0721,349.1536,300.7388,357.487" style="stroke:#181818;stroke-width:2.0833;"/><line style="stroke:#181818;stroke-width:2.0833;" x1="887.899" x2="908.7324" y1="324.1536" y2="324.1536"/><line style="stroke:#181818;stroke-width:2.0833;" x1="908.7324" x2="908.7324" y1="324.1536" y2="369.987"/><polygon fill="#181818" points="900.399,349.1536,908.7324,369.987,917.0657,349.1536,908.7324,357.487" style="stroke:#181818;stroke-width:2.0833;"/><line style="stroke:#181818;stroke-width:2.0833;" x1="300.7388" x2="300.7388" y1="445.6055" y2="543.5221"/><line style="stroke:#181818;stroke-width:2.0833;" x1="300.7388" x2="604.7356" y1="543.5221" y2="543.5221"/><line style="stroke:#181818;stroke-width:2.0833;" x1="604.7356" x2="604.7356" y1="543.5221" y2="574.7721"/><polygon fill="#181818" points="596.4022,553.9388,604.7356,574.7721,613.0689,553.9388,604.7356,562.2721" style="stroke:#181818;stroke-width:2.0833;"/><line style="stroke:#181818;stroke-width:2.0833;" x1="604.7356" x2="604.7356" y1="257.487" y2="299.1536"/><polygon fill="#181818" points="596.4022,278.3203,604.7356,299.1536,613.0689,278.3203,604.7356,286.6536" style="stroke:#181818;stroke-width:2.0833;"/><line style="stroke:#181818;stroke-width:2.0833;" x1="814.6599" x2="814.6599" y1="721.224" y2="762.8906"/><polygon fill="#181818" points="806.3265,742.0573,814.6599,762.8906,822.9932,742.0573,814.6599,750.3906" style="stroke:#181818;stroke-width:2.0833;"/><line style="stroke:#181818;stroke-width:2.0833;" x1="415.6446" x2="394.8112" y1="599.7721" y2="599.7721"/><line style="stroke:#181818;stroke-width:2.0833;" x1="394.8112" x2="394.8112" y1="599.7721" y2="645.6055"/><polygon fill="#181818" points="386.4779,624.7721,394.8112,645.6055,403.1446,624.7721,394.8112,633.1055" style="stroke:#181818;stroke-width:2.0833;"/><line style="stroke:#181818;stroke-width:2.0833;" x1="793.8265" x2="814.6599" y1="599.7721" y2="599.7721"/><line style="stroke:#181818;stroke-width:2.0833;" x1="814.6599" x2="814.6599" y1="599.7721" y2="645.6055"/><polygon fill="#181818" points="806.3265,624.7721,814.6599,645.6055,822.9932,624.7721,814.6599,633.1055" style="stroke:#181818;stroke-width:2.0833;"/><line style="stroke:#181818;stroke-width:2.0833;" x1="394.8112" x2="394.8112" y1="721.224" y2="819.1406"/><line style="stroke:#181818;stroke-width:2.0833;" x1="394.8112" x2="604.7356" y1="819.1406" y2="819.1406"/><line style="stroke:#181818;stroke-width:2.0833;" x1="604.7356" x2="604.7356" y1="819.1406" y2="850.3906"/><polygon fill="#181818" points="596.4022,829.5573,604.7356,850.3906,613.0689,829.5573,604.7356,837.8906" style="stroke:#181818;stroke-width:2.0833;"/><line style="stroke:#181818;stroke-width:2.0833;" x1="869.9455" x2="869.9455" y1="996.8424" y2="1038.5091"/><polygon fill="#181818" points="861.6122,1017.6758,869.9455,1038.5091,878.2789,1017.6758,869.9455,1026.0091" style="stroke:#181818;stroke-width:2.0833;"/><line style="stroke:#181818;stroke-width:2.0833;" x1="360.3589" x2="339.5256" y1="875.3906" y2="875.3906"/><line style="stroke:#181818;stroke-width:2.0833;" x1="339.5256" x2="339.5256" y1="875.3906" y2="921.224"/><polygon fill="#181818" points="331.1923,900.3906,339.5256,921.224,347.8589,900.3906,339.5256,908.724" style="stroke:#181818;stroke-width:2.0833;"/><line style="stroke:#181818;stroke-width:2.0833;" x1="849.1122" x2="869.9455" y1="875.3906" y2="875.3906"/><line style="stroke:#181818;stroke-width:2.0833;" x1="869.9455" x2="869.9455" y1="875.3906" y2="921.224"/><polygon fill="#181818" points="861.6122,900.3906,869.9455,921.224,878.2789,900.3906,869.9455,908.724" style="stroke:#181818;stroke-width:2.0833;"/><line style="stroke:#181818;stroke-width:2.0833;" x1="339.5256" x2="339.5256" y1="996.8424" y2="1094.7591"/><line style="stroke:#181818;stroke-width:2.0833;" x1="339.5256" x2="604.7356" y1="1094.7591" y2="1094.7591"/><line style="stroke:#181818;stroke-width:2.0833;" x1="604.7356" x2="604.7356" y1="1094.7591" y2="1126.0091"/><polygon fill="#181818" points="596.4022,1105.1758,604.7356,1126.0091,613.0689,1105.1758,604.7356,1113.5091" style="stroke:#181818;stroke-width:2.0833;"/><line style="stroke:#181818;stroke-width:2.0833;" x1="361.633" x2="361.633" y1="1272.4609" y2="1314.1276"/><polygon fill="#181818" points="353.2997,1293.2943,361.633,1314.1276,369.9664,1293.2943,361.633,1301.6276" style="stroke:#181818;stroke-width:2.0833;"/><line style="stroke:#181818;stroke-width:2.0833;" x1="468.5733" x2="361.633" y1="1151.0091" y2="1151.0091"/><line style="stroke:#181818;stroke-width:2.0833;" x1="361.633" x2="361.633" y1="1151.0091" y2="1196.8424"/><polygon fill="#181818" points="353.2997,1176.0091,361.633,1196.8424,369.9664,1176.0091,361.633,1184.3424" style="stroke:#181818;stroke-width:2.0833;"/><line style="stroke:#181818;stroke-width:2.0833;" x1="740.8979" x2="847.8381" y1="1151.0091" y2="1151.0091"/><line style="stroke:#181818;stroke-width:2.0833;" x1="847.8381" x2="847.8381" y1="1151.0091" y2="1196.8424"/><polygon fill="#181818" points="839.5048,1176.0091,847.8381,1196.8424,856.1714,1176.0091,847.8381,1184.3424" style="stroke:#181818;stroke-width:2.0833;"/><line style="stroke:#181818;stroke-width:2.0833;" x1="847.8381" x2="847.8381" y1="1272.4609" y2="1370.3776"/><line style="stroke:#181818;stroke-width:2.0833;" x1="847.8381" x2="604.7356" y1="1370.3776" y2="1370.3776"/><line style="stroke:#181818;stroke-width:2.0833;" x1="604.7356" x2="604.7356" y1="1370.3776" y2="1401.6276"/><polygon fill="#181818" points="596.4022,1380.7943,604.7356,1401.6276,613.0689,1380.7943,604.7356,1389.1276" style="stroke:#181818;stroke-width:2.0833;"/><line style="stroke:#181818;stroke-width:2.0833;" x1="604.7356" x2="604.7356" y1="1477.2461" y2="1518.9128"/><polygon fill="#181818" points="596.4022,1498.0794,604.7356,1518.9128,613.0689,1498.0794,604.7356,1506.4128" style="stroke:#181818;stroke-width:2.0833;"/><?plantuml-src dL8_Jq8n4D_xAMw4mGID4mo60QABCS6GE1xjFJYjRMtlaSYtyGCukRcOo1UpVJmGXCcbIQztltyzOR44zsHfwcKO0fp1sDQF7Wm1ra9EMAFczOS30ZRbNkqgXYpaIIq-AfMUs0MC-0mcC5pqUliLgh2sClPE9hmYEB_SUxJiI5u3WO-oy1b8C8fI_T466L1hAch08c2mM_Q1Kbn1v_ih2s_re1PU8YIQhpyTQBJa34RsLrsG1JdeJDRlNGNGlt6i6IE4w3Mb4sO7YcmYwDpwfd-espP7SpH-a6j9V50PdwkjZk5XNClrcsM3nzox42FKgIxw_h2DOiosJsWwnNf7CJUHBW5fSbab9f_DcMFNKuejBxka8uVsNrr9ThbDyJ_M7n0M6uXJj5xoVDtydF4mi_wbfWEeVRvhdB5bQKGAnGfN9ObzTHlYt_Meyych0btsgMcD0rMGVm00?></g></svg>